<svg xmlns="http://www.w3.org/2000/svg" width="380" height="160" viewBox="0 0 380 160">
 <g transform="matrix(0 1 -1 0 380 0)">
    <path d="
      M22 60 
      Q82 145 90 283
      Q95 290 97 280
      Q104 295 108 275
      Q108 293 115 285
      Q130 145 30 10"

      fill="#2E1B51"
      stroke="#000"
      stroke-width="3"
      stroke-linecap="butt" 
    />
      <path d="
      M90 283 
      Q95 290 97 280
      Q104 295 108 275
      Q108 293 115 285
      Q150 285 157 300
      Q138 295 118 307
      Q135 318 135 340
      Q128 329 108 321
      Q110 342 95 363
      Q105 340 87 315
      Q70 340 40 349
      Q60 335 70 310
      Q40 300 22 323
      Q23 305 60 285
      Q60 300 90 283"

      fill="#1b4b51ff"
      stroke="#000"
      stroke-width="3"
      stroke-linejoin="round"/>
  </g>
</svg>