<svg xmlns="http://www.w3.org/2000/svg" width="260" height="130" viewBox="0 0 260 130"
fill="none" stroke="black" stroke-width="2">

    <!-- 1) Outer lips outline -->
    <path id="lip-outer" d="
      M 37 90 Q 5 55, 33 20
      M 33 20 Q 55 2 65 8
      M 65 8 Q 125 50 175 8
      M 175 8 Q 195 2 218 20
      M 218 20 Q 233 55 220 90
      M 220 90 Q 185 125 125 127
      M 125 127 Q 65 125 37 90"
      
    fill="none"
    stroke="red"
    stroke-width="3"
    stroke-linejoin="round"
    stroke-linecap="round"/>

    <!-- 2) Inner lips outline (edge inside, touching teeth) -->
    <path id="lip-inner" d="
      M 20 50
      Q 26 28, 50 25
      Q 110 70, 170 25
      Q 186 30, 200 50
      Q 185 85, 155 100
      Q 136 103, 110 105
      Q 85 103, 65 100
      Q 35 85, 20 50
      Z" 

    fill="none"
    stroke="red"
    stroke-width="3"
    stroke-linejoin="round"
    stroke-linecap="round"/>
</svg>